<?xml version="1.0" encoding="utf-8"?>
<!-- Generator: Adobe Illustrator 25.0.0, SVG Export Plug-In . SVG Version: 6.00 Build 0)  -->
<svg version="1.1" id="图层_1" xmlns="http://www.w3.org/2000/svg" xmlns:xlink="http://www.w3.org/1999/xlink" x="0px" y="0px"
	 viewBox="0 0 900 900" style="enable-background:new 0 0 900 900;" xml:space="preserve">
<style type="text/css">
	.st0{fill:none;}
</style>
<g>
	<path class="st0" d="M130,130v640h640.1L770,130H130z M361.1,688.3c0,14.1-11.5,25.6-25.6,25.6c-14.1,0-25.6-11.5-25.6-25.6v-84.7
		h-90.3c-14.1,0-25.6-11.5-25.6-25.6s11.5-25.6,25.6-25.6h115.9c14.2,0,25.6,11.5,25.6,25.6V688.3z M361.1,329.9
		c0,14.1-11.5,25.6-25.6,25.6H219.6c-14.1,0-25.6-11.5-25.6-25.6c0-14.1,11.5-25.6,25.6-25.6h90.3v-84.7c0-14.1,11.5-25.6,25.6-25.6
		c14.2,0,25.6,11.5,25.6,25.6V329.9z M668.3,603.6H578v84.7c0,14.1-11.5,25.6-25.6,25.6s-25.6-11.5-25.6-25.6V578
		c0-14.1,11.5-25.6,25.6-25.6h115.9c14.1,0,25.6,11.5,25.6,25.6C693.9,592.1,682.4,603.6,668.3,603.6z M668.3,355.5H552.4
		c-14.1,0-25.6-11.5-25.6-25.6V219.6c0-14.1,11.5-25.6,25.6-25.6s25.6,11.5,25.6,25.6v84.7h90.3c14.1,0,25.6,11.5,25.6,25.6
		C693.9,344,682.4,355.5,668.3,355.5z"/>
	<path d="M770,78.8H130c-28.2,0-51.2,23-51.2,51.2v640c0,28.2,23,51.2,51.2,51.2h640c28.2,0,51.2-23,51.2-51.2V130
		C821.2,101.8,798.2,78.8,770,78.8z M130,770V130h640l0.1,640H130z"/>
	<path d="M335.5,552.4H219.6c-14.1,0-25.6,11.5-25.6,25.6s11.5,25.6,25.6,25.6h90.3v84.7c0,14.1,11.5,25.6,25.6,25.6
		c14.1,0,25.6-11.5,25.6-25.6V578C361.1,563.9,349.7,552.4,335.5,552.4z"/>
	<path d="M335.5,194c-14.1,0-25.6,11.5-25.6,25.6v84.7h-90.3c-14.1,0-25.6,11.5-25.6,25.6c0,14.1,11.5,25.6,25.6,25.6h115.9
		c14.1,0,25.6-11.5,25.6-25.6V219.6C361.1,205.5,349.7,194,335.5,194z"/>
	<path d="M668.3,552.4H552.4c-14.1,0-25.6,11.5-25.6,25.6v110.3c0,14.1,11.5,25.6,25.6,25.6s25.6-11.5,25.6-25.6v-84.7h90.3
		c14.1,0,25.6-11.5,25.6-25.6C693.9,563.9,682.4,552.4,668.3,552.4z"/>
	<path d="M668.3,304.3H578v-84.7c0-14.1-11.5-25.6-25.6-25.6s-25.6,11.5-25.6,25.6v110.3c0,14.1,11.5,25.6,25.6,25.6h115.9
		c14.1,0,25.6-11.5,25.6-25.6C693.9,315.8,682.4,304.3,668.3,304.3z"/>
</g>
</svg>
