<?xml version="1.0" encoding="utf-8"?>
<!-- Generator: Adobe Illustrator 25.0.0, SVG Export Plug-In . SVG Version: 6.00 Build 0)  -->
<svg version="1.1" id="图层_1" xmlns="http://www.w3.org/2000/svg" xmlns:xlink="http://www.w3.org/1999/xlink" x="0px" y="0px"
	 viewBox="0 0 734.6 734.6" style="enable-background:new 0 0 734.6 734.6;" xml:space="preserve">
<style type="text/css">
	.st0{clip-path:url(#SVGID_2_);fill:#FFFFFF;}
</style>
<g>
	<g>
		<defs>
			<rect id="SVGID_1_" x="34.4" y="84.8" width="665.9" height="565"/>
		</defs>
		<clipPath id="SVGID_2_">
			<use xlink:href="#SVGID_1_"  style="overflow:visible;"/>
		</clipPath>
		<path class="st0" d="M694.7,317.7c-5.1-6.8-11.9-10.2-20.5-10.2h-8.5v-76.8c0-32.4-27.3-59.7-59.7-59.7H368.8
			c-3.4,0-5.1-1.7-6.8-3.4l-30.7-52.9c-10.2-17.1-30.7-29-51.2-29H94c-32.4,0-59.7,27.3-59.7,59.7v477.9c0,5.1,1.7,10.2,5.1,15.4
			c5.1,6.8,11.9,10.2,20.5,10.2h512c10.2,0,20.5-6.8,23.9-17.1l102.4-290.1C701.6,333.1,699.9,324.6,694.7,317.7L694.7,317.7z
			 M94,136.8h186c3.4,0,5.1,1.7,6.8,3.4l30.7,52.9c10.2,17.1,30.7,29,51.2,29H606c5.1,0,8.5,3.4,8.5,8.5v76.8H162.3
			c-10.2,0-20.5,6.8-23.9,17.1L85.5,473V145.4C85.5,140.2,88.9,136.8,94,136.8L94,136.8z M553.1,597.6H95.7l83.6-238.9h457.4
			L553.1,597.6z M553.1,597.6"/>
	</g>
</g>
</svg>
