<?xml version="1.0" encoding="utf-8"?>
<!-- Generator: Adobe Illustrator 25.0.0, SVG Export Plug-In . SVG Version: 6.00 Build 0)  -->
<svg version="1.1" id="图层_1" xmlns="http://www.w3.org/2000/svg" xmlns:xlink="http://www.w3.org/1999/xlink" x="0px" y="0px"
	 viewBox="0 0 900 900" style="enable-background:new 0 0 900 900;" xml:space="preserve">
<style type="text/css">
	.st0{fill:none;}
</style>
<g>
	<path class="st0" d="M130,130v640h640.1L770,130H130z M552.4,194h115.9c14.1,0,25.6,11.5,25.6,25.6v110.3
		c0,14.1-11.5,25.6-25.6,25.6s-25.6-11.5-25.6-25.6v-84.7h-90.3c-14.1,0-25.6-11.5-25.6-25.6C526.8,205.5,538.3,194,552.4,194z
		 M335.5,713.9H219.6c-14.1,0-25.6-11.5-25.6-25.6V578c0-14.1,11.5-25.6,25.6-25.6c14.1,0,25.6,11.5,25.6,25.6v84.7h90.3
		c14.2,0,25.6,11.5,25.6,25.6S349.6,713.9,335.5,713.9z M335.5,245.2h-90.3v84.7c0,14.1-11.5,25.6-25.6,25.6
		c-14.1,0-25.6-11.5-25.6-25.6V219.6c0-14.1,11.5-25.6,25.6-25.6h115.9c14.2,0,25.6,11.5,25.6,25.6
		C361.1,233.7,349.6,245.2,335.5,245.2z M693.9,688.3c0,14.1-11.5,25.6-25.6,25.6H552.4c-14.1,0-25.6-11.5-25.6-25.6
		s11.5-25.6,25.6-25.6h90.3V578c0-14.1,11.5-25.6,25.6-25.6c14.1,0,25.6,11.5,25.6,25.6V688.3z"/>
	<path d="M335.5,662.7h-90.3V578c0-14.1-11.5-25.6-25.6-25.6c-14.1,0-25.6,11.5-25.6,25.6v110.3c0,14.1,11.5,25.6,25.6,25.6h115.9
		c14.1,0,25.6-11.5,25.6-25.6S349.7,662.7,335.5,662.7z"/>
	<path d="M335.5,194H219.6c-14.1,0-25.6,11.5-25.6,25.6v110.3c0,14.1,11.5,25.6,25.6,25.6c14.1,0,25.6-11.5,25.6-25.6v-84.7h90.3
		c14.1,0,25.6-11.5,25.6-25.6C361.1,205.5,349.7,194,335.5,194z"/>
	<path d="M552.4,245.2h90.3v84.7c0,14.1,11.5,25.6,25.6,25.6s25.6-11.5,25.6-25.6V219.6c0-14.1-11.5-25.6-25.6-25.6H552.4
		c-14.1,0-25.6,11.5-25.6,25.6C526.8,233.7,538.3,245.2,552.4,245.2z"/>
	<path d="M668.3,552.4c-14.1,0-25.6,11.5-25.6,25.6v84.7h-90.3c-14.1,0-25.6,11.5-25.6,25.6s11.5,25.6,25.6,25.6h115.9
		c14.1,0,25.6-11.5,25.6-25.6V578C693.9,563.9,682.4,552.4,668.3,552.4z"/>
	<path d="M770,78.8H130c-28.2,0-51.2,23-51.2,51.2v640c0,28.2,23,51.2,51.2,51.2h640c28.2,0,51.2-23,51.2-51.2V130
		C821.2,101.8,798.2,78.8,770,78.8z M130,770V130h640l0.1,640H130z"/>
</g>
</svg>
