<?xml version="1.0" encoding="utf-8"?>
<!-- Generator: Adobe Illustrator 25.0.0, SVG Export Plug-In . SVG Version: 6.00 Build 0)  -->
<svg version="1.1" id="图层_1" xmlns="http://www.w3.org/2000/svg" xmlns:xlink="http://www.w3.org/1999/xlink" x="0px" y="0px"
	 viewBox="0 0 900 900" style="enable-background:new 0 0 900 900;" xml:space="preserve">
<style type="text/css">
	.st0{fill:#FFFFFF;}
</style>
<g>
	<path class="st0" d="M335.5,194H219.6c-14.1,0-25.6,11.5-25.6,25.6v110.3c0,14.1,11.5,25.6,25.6,25.6c14.1,0,25.6-11.5,25.6-25.6
		v-84.7h90.3c14.1,0,25.6-11.5,25.6-25.6C361.1,205.5,349.7,194,335.5,194L335.5,194z M668.3,194H552.4c-14.1,0-25.6,11.5-25.6,25.6
		c0,14.1,11.5,25.6,25.6,25.6h90.3v84.7c0,14.1,11.5,25.6,25.6,25.6c14.1,0,25.6-11.5,25.6-25.6V219.6
		C693.9,205.5,682.4,194,668.3,194L668.3,194z M335.5,662.7h-90.3V578c0-14.1-11.5-25.6-25.6-25.6c-14.1,0-25.6,11.5-25.6,25.6
		v110.3c0,14.1,11.5,25.6,25.6,25.6h115.9c14.1,0,25.6-11.5,25.6-25.6C361.1,674.2,349.7,662.7,335.5,662.7L335.5,662.7z
		 M668.3,552.4c-14.1,0-25.6,11.5-25.6,25.6v84.7h-90.3c-14.1,0-25.6,11.5-25.6,25.6c0,14.1,11.5,25.6,25.6,25.6h115.9
		c14.1,0,25.6-11.5,25.6-25.6V578C693.9,563.9,682.4,552.4,668.3,552.4L668.3,552.4z M668.3,552.4"/>
	<path class="st0" d="M770,78.8H130c-28.2,0-51.2,23-51.2,51.2v640c0,28.2,23,51.2,51.2,51.2h640c28.2,0,51.2-23,51.2-51.2V130
		C821.2,101.8,798.2,78.8,770,78.8L770,78.8z M130,770V130h640l0.1,640H130z M130,770"/>
</g>
</svg>
