<?xml version="1.0" encoding="utf-8"?>
<!-- Generator: Adobe Illustrator 25.0.0, SVG Export Plug-In . SVG Version: 6.00 Build 0)  -->
<svg version="1.1" id="图层_1" xmlns="http://www.w3.org/2000/svg" xmlns:xlink="http://www.w3.org/1999/xlink" x="0px" y="0px"
	 viewBox="0 0 800 800" style="enable-background:new 0 0 800 800;" xml:space="preserve">
<style type="text/css">
	.st0{fill:none;}
</style>
<g>
	<rect x="287.1" y="508.9" class="st0" width="225.3" height="172.4"/>
	<path class="st0" d="M126.7,681.3h112.6V485.1c0-13.7,10.2-23.9,23.9-23.9h273.1c13.7,0,23.9,10.2,23.9,23.9v196.3h112.6
		c5.1,0,8.5-3.4,8.5-8.5V270c0-3.4,0-5.1-1.7-6.8L536.3,119.8c-1.7,0-5.1-1.7-6.8-1.7H287.1v104.1h198c13.7,0,23.9,10.2,23.9,23.9
		c0,13.7-10.2,23.9-23.9,23.9H263.2c-13.7,0-23.9-10.2-23.9-23.9v-128H126.7c-5.1,0-8.5,3.4-8.5,8.5v546.1
		C118.1,677.9,121.6,681.3,126.7,681.3z"/>
	<path class="st0" d="M67.1,66.5v56.6c1.9-30.8,28.4-56.2,59.6-56.2h401.1c17.1,0,30.7,5.1,42.7,17.1l145.1,145.1
		c10.2,10.2,17.1,25.6,17.1,41v402.8c0,32.4-27.3,59.7-59.7,59.7H126.7c-31.2,0-57.7-25.3-59.6-56.2v57.2h665.9v-667H67.1z"/>
	<path d="M126.7,732.5h546.1c32.4,0,59.7-27.3,59.7-59.7V270c0-15.4-6.8-30.7-17.1-41L570.4,84c-11.9-11.9-25.6-17.1-42.7-17.1
		H126.7c-31.2,0-57.7,25.3-59.6,56.2v553.2C69,707.2,95.4,732.5,126.7,732.5z M512.4,681.3H287.1V508.9h225.3V681.3z M118.1,126.7
		c0-5.1,3.4-8.5,8.5-8.5h112.6v128c0,13.7,10.2,23.9,23.9,23.9h221.9c13.7,0,23.9-10.2,23.9-23.9c0-13.7-10.2-23.9-23.9-23.9h-198
		V118.1h242.3c1.7,0,5.1,1.7,6.8,1.7l143.4,143.4c1.7,1.7,1.7,3.4,1.7,6.8v402.8c0,5.1-3.4,8.5-8.5,8.5H560.2V485.1
		c0-13.7-10.2-23.9-23.9-23.9H263.2c-13.7,0-23.9,10.2-23.9,23.9v196.3H126.7c-5.1,0-8.5-3.4-8.5-8.5V126.7z"/>
</g>
</svg>
