<?xml version="1.0" encoding="utf-8"?>
<!-- Generator: Adobe Illustrator 25.0.0, SVG Export Plug-In . SVG Version: 6.00 Build 0)  -->
<svg version="1.1" id="图层_1" xmlns="http://www.w3.org/2000/svg" xmlns:xlink="http://www.w3.org/1999/xlink" x="0px" y="0px"
	 viewBox="0 0 1080 1080" style="enable-background:new 0 0 1080 1080;" xml:space="preserve">
<style type="text/css">
	.st0{fill:#8A8A8A;}
	.st1{display:none;}
	.st2{display:inline;fill:#8A8A8A;}
	.st3{display:none;fill:#8A8A8A;}
</style>
<image style="overflow:visible;enable-background:new    ;" width="1920" height="961" xlink:href="A5266545.jpeg"  transform="matrix(1 0 0 1 -7232 -7652)">
</image>
<g>
	<path class="st0" d="M530.1,635.7V377.5l-0.4-4.4c-1.8-9.5-9.3-17.3-19.4-20.2c-10.1-2.9-21.2-0.4-28.7,6.4l-56.9,51.6l-3.2,3.6
		c-7.8,10.2-6.5,24.1,3.2,33l4,2.9c11.3,7.1,26.5,5.9,36.3-2.9l8.3-7.6v196l0.5,4.7c2.6,13.2,15.9,22.3,30.5,21.1
		C518.9,660.3,530.2,649.1,530.1,635.7z"/>
	<path class="st0" d="M606.3,372.8c-2.5-12.3-14.2-21.2-28-21.2c-15.7,0-28.4,11.6-28.4,25.8v258.2l0.4,4.4
		c1.8,9.5,9.3,17.3,19.4,20.2c10.1,2.9,21.2,0.4,28.7-6.4l56.8-51.7l3.2-3.6c7.8-10.2,6.5-24.1-3.2-33l-4-2.9
		c-11.3-7.1-26.5-5.9-36.3,2.9l-8.3,7.5V377.5L606.3,372.8z"/>
</g>
<g class="st1">
	<polygon class="st2" points="155.4,101 155.4,137.9 155.4,141.8 155.4,309.2 195.7,309.2 231.4,309.2 383,309.2 383,281.4 
		383,268.4 383,219 696.9,219 696.9,309.2 699.2,309.2 860,309.2 876.8,309.2 899.2,309.2 924.6,309.2 924.6,141.8 924.6,133.3 
		924.6,101 	"/>
</g>
<rect x="155.3" y="101" class="st0" width="769.3" height="219.4"/>
<polygon class="st3" points="905.2,692.9 697,692.9 697,748.9 860,748.9 860,923 220,923 220,749.2 383,749.2 383,693.2 
	155.3,693.2 155.3,749.2 155.3,923 155.3,947.1 155.3,979 924.7,979 924.7,959.2 924.7,923 924.7,693.2 905.2,693.2 "/>
<g>
	<rect x="317" y="806.1" class="st0" width="60" height="60"/>
	<rect x="573" y="806.1" class="st0" width="60" height="60"/>
	<rect x="445" y="806.1" class="st0" width="60" height="60"/>
	<rect x="701" y="806.1" class="st0" width="60" height="60"/>
	<rect x="155.3" y="693.2" class="st0" width="54.3" height="285.8"/>
	<rect x="870.2" y="693.2" class="st0" width="54.3" height="285.8"/>
	<rect x="176.3" y="925.5" class="st0" width="721" height="53.6"/>
	<rect x="187.1" y="693.2" class="st0" width="715.5" height="53.6"/>
</g>
</svg>
