<?xml version="1.0" encoding="utf-8"?>
<!-- Generator: Adobe Illustrator 25.0.0, SVG Export Plug-In . SVG Version: 6.00 Build 0)  -->
<svg version="1.1" id="图层_1" xmlns="http://www.w3.org/2000/svg" xmlns:xlink="http://www.w3.org/1999/xlink" x="0px" y="0px"
	 viewBox="0 0 1015.2 918" style="enable-background:new 0 0 1015.2 918;" xml:space="preserve">
<style type="text/css">
	.st0{clip-path:url(#SVGID_2_);fill:#8A8A8A;}
</style>
<g>
	<g>
		<g>
			<defs>
				<rect id="SVGID_1_" x="147.81" y="98.73" width="716.88" height="717.84"/>
			</defs>
			<clipPath id="SVGID_2_">
				<use xlink:href="#SVGID_1_"  style="overflow:visible;"/>
			</clipPath>
			<path class="st0" d="M250.21,406.01v-51.2h51.2v51.2H250.21z M301.41,508.41v-51.2h-51.2v51.2H301.41z M301.41,610.81v-51.2
				h-51.2v51.2H301.41z M301.41,713.21v-51.2h-51.2v51.2H301.41z M403.81,815.61H148.73l-0.92-563.2h0.72l-0.72-153.6h715.88
				l0.92,204.8H402.99L403.81,815.61z M352.61,764.41l0.1-460.8H198.29l0.71,460.8H352.61z M726.83,357.11
				c-3.02,1.28-8.29,3.17-10.6,5.43c-0.2,0.1-0.31,0.16-0.41,0.26L616.7,463.92c-5.12,5.12-7.68,11.78-7.68,18.49
				c0,6.81-2.1,13.51,3.02,18.59c10.29,10.29,26.88,10.29,37.22,0l63.49-61.18v222.21H541.79l59.75-62.82
				c10.29-10.29,10.29-26.88,0-37.22c-10.24-10.24-26.93-14.95-37.12-4.66L463.31,667.18c-0.52,0.41-0.72,1.07-1.08,1.59
				c-1.79,2.1-3.48,4.3-4.61,6.91c-1.08,2.92-1.59,4.5-1.79,7.47c0,0.41-0.21,0.72-0.21,1.08c0,0.61,0.31,1.07,0.31,1.69
				c0.21,2.82,0.61,0.51,1.69,3.28c1.28,3.02,3.17,8.29,5.48,10.6c0.1,0.21,0.1,0.31,0.21,0.41l101.12,99.12
				c5.12,5.12,11.78,7.68,18.48,7.68c6.81,0,13.52,2.1,18.59-3.02c10.29-10.29,10.29-26.88,0-37.22l-53.35-53.56
				c2.87,0.51,5.43,1.69,8.4,1.69H712.7c28.31,0,48.59-24.58,48.59-52.89v-204.8c0-3.89-1.18-7.37-2-11.01l57.6,54.79
				c10.29,10.29,26.88,10.29,37.22,0c10.29-10.19,15-26.88,4.71-37.12L748.9,362.8c-0.41-0.51-1.08-0.72-1.59-1.08
				c-2.1-1.79-4.3-3.48-6.91-4.6c-2.92-1.08-4.51-1.64-7.48-1.79c-0.41,0-0.71-0.2-1.07-0.2c-0.61,0-1.07,0.3-1.69,0.3
				C727.29,355.63,729.6,355.99,726.83,357.11L726.83,357.11z"/>
		</g>
	</g>
</g>
</svg>
