<?xml version="1.0" encoding="utf-8"?>
<!-- Generator: Adobe Illustrator 25.0.0, SVG Export Plug-In . SVG Version: 6.00 Build 0)  -->
<svg version="1.1" id="图层_1" xmlns="http://www.w3.org/2000/svg" xmlns:xlink="http://www.w3.org/1999/xlink" x="0px" y="0px"
	 viewBox="0 0 808.4 808.4" style="enable-background:new 0 0 808.4 808.4;" xml:space="preserve">
<style type="text/css">
	.st0{clip-path:url(#SVGID_2_);fill:#FFFFFF;}
</style>
<g>
	<g>
		<defs>
			<rect id="SVGID_1_" x="71.3" y="95.8" width="665.9" height="616.8"/>
		</defs>
		<clipPath id="SVGID_2_">
			<use xlink:href="#SVGID_1_"  style="overflow:visible;"/>
		</clipPath>
		<path class="st0" d="M711.1,489.8c-13.7,0-25.6,11.9-25.6,25.6v136.5c0,5.1-3.4,8.5-8.5,8.5H130.9c-5.1,0-8.5-3.4-8.5-8.5V515.4
			c0-13.7-11.9-25.6-25.6-25.6c-13.7,0-25.6,11.9-25.6,25.6v136.5c0,32.4,27.3,59.7,59.7,59.7H677c32.4,0,59.7-27.3,59.7-59.7V515.4
			C736.7,501.7,724.8,489.8,711.1,489.8L711.1,489.8z M711.1,489.8"/>
		<path class="st0" d="M252,312.3L378.3,186v363.5c0,13.7,11.9,25.6,25.6,25.6c13.7,0,25.6-11.9,25.6-25.6V184.3l126.3,126.3
			c5.1,5.1,12,6.8,18.8,6.8c6.8,0,13.7-1.7,18.8-6.8c10.2-10.2,10.2-25.6,0-35.8L422.7,104.1c-10.2-10.2-25.6-10.2-35.8,0
			L216.2,274.7c-10.2,10.2-10.2,25.6,0,35.8C224.7,320.8,241.8,320.8,252,312.3L252,312.3z M252,312.3"/>
	</g>
</g>
</svg>
